<svg xmlns="http://www.w3.org/2000/svg" xmlns:xlink="http://www.w3.org/1999/xlink" width="512" height="512" x="0" y="0" viewBox="0 0 72 72" style="enable-background:new 0 0 512 512" xml:space="preserve" class=""><g><path fill="#f9c4c0" d="M26.086 45.827a2.24 2.24 0 0 1-2.24-2.24v-7.036a2.24 2.24 0 1 1 4.48 0v7.037a2.24 2.24 0 0 1-2.24 2.24z" opacity="1" data-original="#f9c4c0" class=""></path><path fill="#dee9fa" d="M14.165 61.981h4.553v5.698h-4.553z" opacity="1" data-original="#c7dafa" class=""></path><path fill="#dee9fa" d="M24.257 57.746H5.96v2.732h18.338V57.75c-.014 0-.026-.004-.04-.004z" opacity="1" data-original="#387094" class=""></path><path fill="#dee9fa" d="M5.959 60.478h18.338v2.553H5.959z" opacity="1" data-original="#315a79" class=""></path><path fill="#1c1c1c" d="M29.201 48.38H25.21v19.3h9.662V54.058a5.675 5.675 0 0 0-5.67-5.677z" opacity="1" data-original="#5592ff" class=""></path><path fill="#1c1c1c" d="M24.216 48.383v9.443h-12.93a4.983 4.983 0 0 1-4.983-4.978v-4.465zM33.428 67.68V54.057a5.675 5.675 0 0 0-5.67-5.677h-3.54v19.298z" opacity="1" data-original="#79affe" class=""></path><path fill="#0d3276" d="m11.1 25.851 10.44.582c.23-.572 2.024-4.543 2.775-6.81.817-2.487.6-8.348-2.583-10.3-3.182-1.957-4.438.192-4.438.192-6.563-2.844-7.284 7.698-6.39 10.255.737 2.108.352 5.102.196 6.081z" opacity="1" data-original="#32327a" class=""></path><path fill="#0d3276" d="M28.382 35.604a.347.347 0 0 1-.332.404l-6.664.123-.253-1.047V25.85l2.57.123c1.726.093 3.156 1.292 3.473 2.902z" opacity="1" data-original="#78d7a6" class=""></path><path fill="#0d3276" d="M24.942 48.383V29.666a3.814 3.814 0 0 0-3.808-3.815l-11.132-.018a3.694 3.694 0 0 0-3.7 3.7v18.85h18.64z" opacity="1" data-original="#78d7a6" class=""></path><path fill="#f9c4c0" d="m19.058 25.851-.21 4.04-5.201-4.057z" opacity="1" data-original="#f9c4c0" class=""></path><path fill="#f9c4c0" d="M13.659 19.621h5.4v6.23h-5.4z" opacity="1" data-original="#f9c4c0" class=""></path><path fill="#fd9997" d="M13.659 18.508v5.035s2.387 1.234 5.4.771v-5.806z" opacity="1" data-original="#fd9997"></path><path fill="#f9c4c0" d="M23.107 16.01v3.249a4.72 4.72 0 0 1-4.723 4.722 4.725 4.725 0 0 1-4.723-4.722v-3.25a4.725 4.725 0 0 1 8.067-3.337 4.723 4.723 0 0 1 1.38 3.337z" opacity="1" data-original="#f9c4c0" class=""></path><path fill="#fd9997" d="M18.413 21.683a.175.175 0 0 1-.147-.27c.29-.448.681-.76 1.102-.88.468-.136.948-.037 1.372.047.095.02.157.11.138.206-.02.095-.108.151-.207.138-.385-.078-.822-.163-1.207-.054-.34.096-.66.357-.903.733a.175.175 0 0 1-.148.08z" opacity="1" data-original="#fd9997"></path><ellipse cx="21.294" cy="17.58" fill="#333077" rx=".441" ry=".591" opacity="1" data-original="#333077"></ellipse><ellipse cx="18.097" cy="17.58" fill="#333077" rx=".441" ry=".591" opacity="1" data-original="#333077"></ellipse><path fill="#f9c4c0" d="M13.659 16.93a1.579 1.579 0 0 0 0 3.157z" opacity="1" data-original="#f9c4c0" class=""></path><path fill="#0d3276" d="M13.661 15.19s7.054.649 9.259-.497 0-3.033 0-3.033l-1.838-.809-4.259-1.078-3.162 1.078v4.34z" opacity="1" data-original="#32327a" class=""></path><path fill="#0d3276" d="M24.942 36.063V30.99l1.144 5.052z" opacity="1" data-original="#5db19c" class=""></path><path fill="#f9c4c0" d="M18.065 53.494c-.035.232-2.883 3.592-2.883 3.592l-9.6-6.961a3.147 3.147 0 0 1-1.27-2.525V36.13l6.847.421-.295 9.162s7.201 7.522 7.201 7.781z" opacity="1" data-original="#f9c4c0" class=""></path><path fill="#0d3276" d="M11.378 37.108H4v-5.45a5.824 5.824 0 0 1 5.824-5.825c.858 0 1.554.696 1.554 1.554v9.72z" opacity="1" data-original="#78d7a6" class=""></path><path fill="#0d3276" d="m11.595 38.454.005-.369c.009-1.027.039-2.055.027-3.083 0-2.056-.01-4.113-.08-6.17a183.422 183.422 0 0 0-.337 6.161c-.055 1.027-.068 2.055-.103 3.082l-.01.38z" opacity="1" data-original="#5db19c" class=""></path><path fill="#f9c4c0" d="M19.767 60.535a2.143 2.143 0 0 1-3.019-.734l-1.563-2.717 2.883-3.592 1.319-.096a.768.768 0 1 1 .056 1.534h-.877l1.798 2.577c.695.996.424 2.37-.597 3.028zM28.326 40.683v2.53a2.908 2.908 0 0 1-2.909 2.91l-6.754-.407.42-4.878z" opacity="1" data-original="#f9c4c0" class=""></path><path fill="#f9c4c0" d="m19.086 40.837-.421 4.876-2.823.237a1.867 1.867 0 0 1-2.023-1.885l.011-.898a1.867 1.867 0 0 1 1.737-1.838l2.038-.143-.278-.323a.781.781 0 1 1 1.276-.89z" opacity="1" data-original="#f9c4c0" class=""></path><path fill="#0d3276" d="m50.525 8.64-.1 3.683c-.012.454.163.893.484 1.214l1.684-3.085V8.641z" opacity="1" data-original="#373754" class=""></path><path fill="#f9c4c0" d="M54.737 16.015h5.179v6.288h-5.179z" opacity="1" data-original="#f9c4c0" class=""></path><path fill="#fd9997" d="M54.737 14.947v4.829s2.29 1.184 5.18.74v-5.569z" opacity="1" data-original="#fd9997"></path><path fill="#f9c4c0" d="M50.854 12.55v3.117c0 2.5 2.023 4.53 4.53 4.53 2.5 0 4.53-2.03 4.53-4.53V12.55a4.532 4.532 0 0 0-7.738-3.201 4.53 4.53 0 0 0-1.322 3.201z" opacity="1" data-original="#f9c4c0" class=""></path><ellipse cx="55.601" cy="13.913" fill="#0d3276" rx=".423" ry=".627" opacity="1" data-original="#373754" class=""></ellipse><ellipse cx="52.593" cy="13.913" fill="#0d3276" rx=".423" ry=".627" opacity="1" data-original="#373754" class=""></ellipse><path fill="#ffffff" d="M55.889 16.605c0 .025.007.049.007.074a1.718 1.718 0 1 1-3.436 0c0-.025.006-.049.007-.074z" opacity="1" data-original="#ffffff"></path><path fill="#0d3276" d="M61.294 14.335S62.52 12.86 62.48 9.87c-.042-3.164-.905-3.697-3.569-4.575 0 0-.928-1.099-3.31-.978-2.383.121-3.786 1.729-5.966 1.76 0 0-.03 1.31.726 1.492 0 0-.242.939-1.271.636 0 0-.118 4.67 9.246 1.857 0 0-.333 1.167.938 1.803l-.01 1.853a.614.614 0 0 0 .65.617l.002-.902z" opacity="1" data-original="#373754" class=""></path><path fill="#f9c4c0" d="M59.916 13.433a1.514 1.514 0 0 1 0 3.028z" opacity="1" data-original="#f9c4c0" class=""></path><path fill="#1c1c1c" d="m56.658 67.692.456-21.662-4.187.383-4.457.413v20.866z" opacity="1" data-original="#5592ff" class=""></path><path d="m56.658 67.692.456-21.662-4.187.383 1.68 21.28z" opacity="1" fill="#00000010" data-original="#00000010" class=""></path><path fill="#1c1c1c" d="M66.874 67.692V45.521l-12.272-.825 1.818 22.996z" opacity="1" data-original="#79affe" class=""></path><path fill="#0d3276" d="M48.612 27.232v16.841h16.552v-18.42a3.517 3.517 0 0 0-3.517-3.518h-7.919c-2.825 0-5.116 2.278-5.116 5.097z" opacity="1" data-original="#78d7a6" class=""></path><path d="M48.612 43.821h16.554v1.689H48.612z" fill="#000000" opacity="1" data-original="#000000"></path><path fill="#f2cf77" d="M48.047 28.412v8.764a3.23 3.23 0 0 0 .565-.411v-8.353c0-.185-.123-.338-.282-.338-.154 0-.283.153-.283.338z" opacity="1" data-original="#f2cf77"></path><path fill="#ffffff" d="M55.229 46.032h-3.292a.536.536 0 0 1-.535-.535v-1.601c0-.296.24-.535.535-.535h3.292c.295 0 .535.24.535.535v1.6c0 .296-.24.536-.535.536zm-3.292-2.16-.024 1.625 3.316.024c.013 0 .024-.011.024-.024v-1.601z" opacity="1" data-original="#ffffff"></path><path fill="#353e57" d="m51.783 40.557 2.015 2.402 2.558-2.402.152-18.188h-1.153z" opacity="1" data-original="#353e57"></path><path d="m51.786 40.557 2.01 2.4.313-.296-1.945-2.322 3.523-17.967h-.331z" opacity="1" fill="#00000008" data-original="#00000008"></path><path fill="#353e57" d="m54.146 22.134 1.713 3.176 2.628-3.176z" opacity="1" data-original="#353e57"></path><path fill="#0d3276" d="m60.82 22.133-.986-.99-3.306.99.922 2.063zM54.482 24.004l2.046-1.87-1.763-.752-.606.751z" opacity="1" data-original="#5db19c" class=""></path><path fill="#f1f7ff" d="M53.848 51.357a3.832 3.832 0 0 0 3.827 3.887h9.454l.195-27.426.008-.788v-.24a4.616 4.616 0 0 0-4.622-4.652h-1.891l-6.213 7.218-.008.008-.255 7.556-.218 6.236-.27 8.014zM37.647 35.374l5.628 4.165 1.328.983c.938.69 2.064.975 3.152.863l.322-.045a4.459 4.459 0 0 0 1.876-.796c.09-.067.18-.142.27-.217l1.929-1.636.42-16.493-2.911.442a4.715 4.715 0 0 0-3.985 4.173l-.082 6.092-7.58-2.903z" opacity="1" data-original="#f1f7ff" class=""></path><path fill="#dee9fa" d="m43.275 39.539 1.328.983c.938.69 2.064.975 3.152.863l.322-.045a4.459 4.459 0 0 0 1.876-.796c.09-.21.158-.427.21-.645.248-.998.158-2.056-.037-3.069a15.497 15.497 0 0 0-2.334-5.703 32.167 32.167 0 0 1-1.336 4.953c-.33.915-.72 1.846-1.425 2.513-.488.458-1.103.766-1.756.946z" opacity="1" data-original="#c7dafa" class=""></path><path fill="#f1f7ff" d="M48.047 27.51v27.412l2.049.127a4.15 4.15 0 0 0 3.767-3.992l.27-7.901.21-6.236h.007l.256-7.556-.443-7.234h-.743a5.378 5.378 0 0 0-5.373 5.38z" opacity="1" data-original="#f1f7ff" class=""></path><path fill="#dee9fa" d="m53.676 51.067.738-21.688.324.01-.739 21.69zM47.755 30.002v11.383l.322-.045V30.002z" opacity="1" data-original="#c7dafa" class=""></path><path fill="#dee9fa" d="M33.936 39.78h6.3c.353 0 .606-.34.505-.678l-3.37-11.258a.527.527 0 0 0-.504-.376h-6.3a.527.527 0 0 0-.505.679l3.37 11.258a.527.527 0 0 0 .504.375z" opacity="1" data-original="#363383" class=""></path><path fill="#f9c4c0" d="m30.056 30.779.815 3.462c.077.327.404.53.73.453a1.808 1.808 0 0 0 1.347-2.175l-.265-1.125a1.808 1.808 0 0 0-2.174-1.346.608.608 0 0 0-.453.73z" opacity="1" data-original="#f9c4c0" class=""></path><path fill="#dee9fa" d="M48.047 38.18v.706a.81.81 0 0 0 .083.068c.608.442 2.033 1.86 2.679 2.258 1.088.668 2.206 1.298 3.316 1.944h.008c.42.247.84.487 1.26.735 2.477 1.47 4.908 3.114 6.791 5.298 1.404 1.628 2.627 3.842 3.114 6.055h1.831l.195-27.426.008-.788c-.615-.188-1.35-.06-1.974.188-2.52 1.028-4.067 3.511-5.875 5.545a20.642 20.642 0 0 1-5.133 4.157h-.007c-.383.233-.78.443-1.178.638-1.223.608-3.272.045-4.585.413-.203.06-.39.127-.533.21z" opacity="1" data-original="#c7dafa" class=""></path><path fill="#f1f7ff" d="m59.813 24.953-4.054 9.453-11.144-3.448-1.242 4.615 12.973 7.344c2.808 1.589 6.369.222 7.391-2.838l4.041-12.093a4.265 4.265 0 0 0-7.965-3.033z" opacity="1" data-original="#f1f7ff" class=""></path><path fill="#dee9fa" d="M59.813 24.953a224.869 224.869 0 0 0-2.153 4.673c-.712 1.56-1.378 3.14-2.07 4.708l.223-.103c-.925-.298-1.86-.567-2.789-.853l-2.793-.84a244.133 244.133 0 0 0-5.616-1.58c1.835.647 3.678 1.267 5.527 1.868l2.78.885c.927.289 1.85.594 2.783.87l.16.048.062-.15c.66-1.583 1.345-3.154 1.985-4.745.655-1.585 1.282-3.18 1.901-4.78z" opacity="1" data-original="#c7dafa" class=""></path><path fill="#dee9fa" d="m47.747 31.06.045.067c.023-.165.053-.338.083-.503z" opacity="1" data-original="#c7dafa" class=""></path><path fill="#f9c4c0" d="M38.3 30.534c0 .346.24.653.578.728l2.633.623-.217 2.101a1.345 1.345 0 0 0 1.178 1.478l.9.113 1.246-4.615-.278-1.14a.66.66 0 0 0-.908-.443.655.655 0 0 0-.322.87l.255.548c-.173-.045-2.732-.66-4.142-.998a.747.747 0 0 0-.923.735z" opacity="1" data-original="#f9c4c0" class=""></path></g></svg>